<?xml version="1.0" standalone="no"?>
<!DOCTYPE svg PUBLIC "-//W3C//DTD SVG 20010904//EN"
 "http://www.w3.org/TR/2001/REC-SVG-20010904/DTD/svg10.dtd">
<svg version="1.0" xmlns="http://www.w3.org/2000/svg"
 width="512.000000pt" height="512.000000pt" viewBox="0 0 512.000000 512.000000"
 preserveAspectRatio="xMidYMid meet">
<metadata>
Created by potrace 1.14, written by Peter Selinger 2001-2017
</metadata>
<g transform="translate(0.000000,512.000000) scale(0.100000,-0.100000)"
fill="#000000" stroke="none">
<path d="M2528 4845 c-2 -2 -64 -6 -138 -10 -74 -3 -157 -8 -185 -10 -68 -5
-194 -16 -230 -20 -70 -6 -162 -16 -195 -20 -19 -3 -55 -7 -80 -10 -54 -7 -72
-10 -220 -36 -63 -11 -160 -31 -215 -45 -120 -31 -116 -30 -135 -37 -8 -3 -52
-17 -97 -32 l-81 -26 -7 -95 c-7 -85 0 -317 9 -333 2 -3 7 -27 10 -52 8 -56
45 -201 54 -211 4 -4 43 -11 87 -17 44 -6 91 -13 105 -15 14 -2 48 -7 75 -11
28 -3 66 -9 85 -12 19 -3 44 -6 54 -7 19 -1 20 -13 22 -426 1 -234 5 -447 7
-475 2 -27 8 -104 11 -170 4 -66 9 -140 11 -165 2 -25 6 -85 10 -135 3 -49 8
-115 10 -145 2 -30 7 -98 10 -150 3 -52 8 -115 10 -140 10 -105 15 -171 21
-270 3 -58 8 -123 10 -145 9 -94 11 -423 3 -452 l-9 -32 -73 26 c-79 28 -115
44 -256 110 -52 24 -97 40 -101 36 -75 -85 -164 -258 -184 -355 -3 -13 -9 -47
-15 -76 -6 -29 -13 -92 -17 -140 l-6 -87 41 -62 c71 -105 161 -186 265 -237
134 -66 217 -87 366 -91 146 -4 250 11 375 56 119 42 198 91 286 178 85 86
139 173 180 295 29 86 73 283 83 377 4 31 8 65 10 75 2 11 7 53 10 94 4 41 9
91 11 110 5 42 12 127 21 235 3 44 7 81 8 83 2 1 16 -2 32 -9 80 -30 390 -102
499 -115 28 -4 52 -8 55 -9 17 -10 222 -20 393 -20 l199 0 27 31 c39 43 95
198 116 317 43 249 14 487 -78 645 -14 24 -24 31 -38 27 -10 -4 -31 -8 -46
-11 -16 -3 -35 -7 -43 -9 -8 -3 -33 -7 -55 -10 -22 -3 -51 -8 -64 -11 -33 -7
-315 -53 -421 -69 -25 -4 -58 -9 -75 -11 -16 -3 -50 -7 -75 -10 -25 -2 -52 -6
-60 -9 -8 -2 -44 -7 -80 -10 -36 -4 -74 -9 -85 -11 -11 -2 -40 -6 -65 -9 -25
-3 -58 -7 -73 -9 l-28 -3 6 131 c4 72 8 172 10 221 2 50 6 142 10 205 3 63 8
176 10 250 13 401 23 591 30 598 14 14 313 21 410 9 28 -3 57 -6 65 -6 9 -1
16 -9 17 -18 1 -10 11 -90 23 -178 12 -88 23 -176 26 -195 2 -19 6 -50 9 -68
3 -18 7 -52 10 -75 3 -23 7 -51 9 -62 2 -11 7 -47 11 -81 l7 -61 56 -26 c88
-41 137 -49 277 -49 136 0 231 16 310 51 33 15 51 32 78 79 42 72 94 202 137
342 37 122 33 108 49 185 7 33 16 74 21 90 5 17 11 46 14 65 3 19 10 58 15 85
5 28 12 74 16 104 4 30 9 63 11 75 2 11 7 69 10 128 l6 108 -40 53 c-46 59
-162 173 -237 232 -27 22 -52 42 -55 45 -3 3 -39 28 -80 55 -81 53 -137 70
-259 80 -42 4 -92 9 -111 12 -38 5 -916 13 -922 8z"/>
</g>
</svg>
