<svg width="416" height="134" viewBox="0 0 416 134" fill="none" xmlns="http://www.w3.org/2000/svg">
<g clip-path="url(#clip0_2549_211)">
<path d="M6.27881 104.375C8.12712 105.245 9.97542 106.115 11.8237 106.984C13.7264 107.8 15.8193 108.615 18.1025 109.431C18.4831 108.398 18.6733 106.767 18.6733 104.538C18.6733 103.016 18.6462 101.847 18.5918 101.032C18.3743 96.8459 17.9395 90.4855 17.2871 81.9507C16.6348 73.0353 16.1455 65.778 15.8193 60.1787C15.4932 54.5794 15.3301 49.2791 15.3301 44.2778C15.3301 42.7557 15.3844 40.6356 15.4932 37.9175L15.7378 34.085L3.58789 32.3726C2.88118 30.3612 2.33757 28.1595 1.95703 25.7676C1.5765 23.3213 1.38623 20.9565 1.38623 18.6733C1.38623 16.9338 1.52214 15.0311 1.79395 12.9653C8.31738 10.4647 16.526 8.67074 26.4199 7.5835C36.3138 6.49626 46.5339 5.95264 57.0801 5.95264C67.735 5.95264 75.0739 6.41471 79.0967 7.33887L79.1782 7.25732C82.1138 8.99691 84.6688 10.818 86.8433 12.7207C89.0721 14.569 91.1922 16.825 93.2036 19.4888C93.2036 23.2397 92.7415 27.5615 91.8174 32.4541C90.9476 37.2923 89.806 41.75 88.3926 45.8271C87.0335 49.9043 85.6201 52.7855 84.1523 54.4707C82.8477 55.0687 81.4342 55.5308 79.9121 55.8569C78.39 56.1287 76.5417 56.2646 74.3672 56.2646C72.084 56.2646 70.3444 56.1016 69.1484 55.7754C68.0068 55.4492 66.7565 54.9056 65.3975 54.1445L62.625 33.6772C60.8311 33.2967 58.6566 33.1064 56.1016 33.1064C53.8184 33.1064 51.3993 33.2424 48.8442 33.5142C48.6812 36.0692 48.4909 40.2822 48.2734 46.1533C48.1647 50.4479 48.0016 54.6066 47.7842 58.6294L47.1318 72.8179C60.3962 71.187 71.4588 69.4746 80.3198 67.6807C82.4943 70.888 83.5815 75.0195 83.5815 80.0752C83.5815 83.3913 83.1466 86.5715 82.2769 89.6157C81.4071 92.66 80.4557 94.7529 79.4229 95.8945C77.7376 96.1663 75.5088 96.3022 72.7363 96.3022C68.6048 96.3022 64.1743 95.9217 59.4448 95.1606C54.7697 94.3452 50.312 93.2308 46.0718 91.8174C45.7456 96.6556 45.3379 101.331 44.8486 105.843C44.3594 110.137 43.6799 113.888 42.8101 117.096C41.9946 120.249 40.7171 122.994 38.9775 125.332C36.7487 128.267 33.8947 130.442 30.4155 131.855C26.9907 133.268 23.2941 133.975 19.3257 133.975C15.6834 133.975 12.0955 133.132 8.56201 131.447C5.08284 129.762 2.22884 126.908 0 122.885C0.054362 119.352 0.489258 116.172 1.30469 113.345C2.17448 110.518 3.83252 107.528 6.27881 104.375Z" fill="black"/>
<path d="M93.9375 84.1523C93.9375 74.3128 95.514 65.778 98.667 58.5479C101.82 51.3177 106.658 45.7184 113.182 41.75C119.705 37.7272 127.887 35.7158 137.726 35.7158C148.598 35.7158 157.133 37.7544 163.331 41.8315C169.528 45.8543 173.85 51.4536 176.296 58.6294C178.797 65.8052 180.047 74.5846 180.047 84.9678C180.047 94.3724 178.389 102.771 175.073 110.165C171.811 117.503 166.864 123.32 160.232 127.615C153.654 131.855 145.581 133.975 136.014 133.975C121.227 133.975 110.518 129.436 103.886 120.357C97.2536 111.225 93.9375 99.1562 93.9375 84.1523ZM139.357 110.083C142.129 110.083 143.815 109.866 144.413 109.431C145.663 107.256 146.614 104.185 147.267 100.216C147.919 96.2479 148.245 91.9533 148.245 87.3325C148.245 83.0923 147.973 79.1239 147.43 75.4272C146.886 71.6763 146.125 68.7407 145.146 66.6206C144.549 65.9139 143.353 65.3975 141.559 65.0713C139.765 64.6908 137.808 64.5005 135.688 64.5005C132.915 64.5005 131.012 64.7995 129.979 65.3975C127.261 70.0726 125.902 76.5688 125.902 84.8862C125.902 88.8003 126.201 92.7959 126.799 96.873C127.397 100.95 128.158 104.647 129.083 107.963C129.735 108.67 131.067 109.213 133.078 109.594C135.09 109.92 137.182 110.083 139.357 110.083Z" fill="black"/>
<path d="M188.854 25.686C188.038 22.37 187.494 19.6247 187.223 17.4502C186.951 15.2214 186.842 12.6663 186.896 9.78516C188.038 8.31738 189.805 6.84961 192.197 5.38184C194.643 3.8597 197.47 2.58219 200.677 1.54932C203.939 0.516439 207.309 0 210.789 0C217.584 0 222.803 1.7124 226.445 5.13721C230.087 8.56201 231.908 13.6177 231.908 20.3042C231.908 25.0881 231.5 32.7803 230.685 43.3809C229.87 53.9814 228.701 65.2616 227.179 77.2212C225.657 89.1265 223.917 99.5368 221.96 108.452L222.123 108.615L234.191 103.56C238.432 107.202 240.905 112.04 241.612 118.074C241.612 118.455 240.389 120.031 237.942 122.804C235.496 125.522 232.262 128.077 228.239 130.469C224.27 132.806 219.704 133.975 214.54 133.975C209.158 133.975 204.782 132.48 201.411 129.49C198.095 126.5 196.519 121.39 196.682 114.16L196.845 99.4824C196.899 85.5658 197.035 73.0353 197.252 61.8911C197.524 50.7469 198.068 39.2493 198.883 27.3984L188.854 25.686Z" fill="black"/>
<path d="M252.946 79.6675C252.946 54.2261 253.436 36.7759 254.414 27.3169L245.2 25.686C243.895 20.6847 243.243 15.3029 243.243 9.54053C244.058 8.50765 245.58 7.23014 247.809 5.70801C250.038 4.18587 252.62 2.854 255.556 1.7124C258.546 0.570801 261.508 0 264.444 0C271.728 0 277.382 1.5765 281.405 4.72949C285.482 7.88249 287.521 13.2643 287.521 20.875C287.521 24.6803 287.249 30.5243 286.705 38.4067C286.161 46.2349 285.156 55.7482 283.688 66.9468C282.22 78.1453 280.263 89.8332 277.817 102.01L279.203 102.826C283.498 96.9002 287.629 90.3768 291.598 83.2554C295.566 76.0796 298.719 69.4202 301.057 63.2773L294.044 61.5649C293.392 57.8683 293.065 53.4922 293.065 48.4365V45.501C295.131 42.8916 297.958 40.6084 301.546 38.6514C305.188 36.6943 309.7 35.7158 315.082 35.7158C318.942 35.7158 322.285 36.4497 325.112 37.9175C327.939 39.3309 330.113 41.3151 331.635 43.8701C333.157 46.4251 333.918 49.3607 333.918 52.6768C333.918 55.1774 333.538 57.5422 332.777 59.771C332.016 61.9455 330.874 64.2559 329.352 66.7021C325.438 72.8994 318.616 81.7061 308.885 93.1221C312.146 97.6885 315.327 101.657 318.425 105.027C319.621 104.429 320.736 103.641 321.769 102.663C322.856 101.684 324.242 100.271 325.927 98.4224L327.721 96.5469L337.751 104.13C337.37 113.807 335.278 121.2 331.472 126.31C327.721 131.366 322.747 133.894 316.55 133.894C309.755 133.894 304.645 131.828 301.22 127.696C297.795 123.565 295.294 117.721 293.718 110.165C287.738 116.634 282.465 122.07 277.898 126.473C273.386 130.822 270.424 133.323 269.01 133.975C266.02 133.975 263.166 133.622 260.448 132.915C257.73 132.208 255.719 131.094 254.414 129.572C253.816 121.852 253.408 114.215 253.191 106.658C253.028 99.0475 252.946 90.0506 252.946 79.6675Z" fill="black"/>
<path d="M354.06 103.56C358.843 105.462 362.676 106.93 365.557 107.963C368.438 108.996 371.591 109.893 375.016 110.654C378.495 111.415 381.947 111.795 385.372 111.795C386.894 111.795 387.981 111.66 388.634 111.388C388.797 111.17 388.933 110.844 389.042 110.409C389.205 109.92 389.286 109.431 389.286 108.941C389.286 107.854 388.661 106.957 387.411 106.25C385.454 105.163 381.974 103.451 376.973 101.113C370.124 97.8516 364.687 94.9432 360.665 92.3882C356.696 89.8332 353.326 86.4355 350.553 82.1953C347.835 77.9551 346.476 72.6276 346.476 66.2129C346.476 57.0257 349.221 49.6597 354.712 44.1147C360.202 38.5155 368.9 35.7158 380.806 35.7158C394.994 35.7158 406.03 37.5641 413.912 41.2607C414.293 42.8372 414.483 44.8215 414.483 47.2134C414.483 51.7798 413.776 56.4549 412.363 61.2388C410.949 65.9683 409.101 69.4746 406.818 71.7578C403.719 70.7249 399.343 69.0669 393.689 66.7837C389.558 65.1528 386.269 63.9025 383.823 63.0327C381.431 62.1086 379.229 61.4562 377.218 61.0757C376.131 61.3475 375.261 61.9998 374.608 63.0327C373.956 64.0112 373.63 65.18 373.63 66.5391C373.63 67.735 373.983 68.7407 374.69 69.5562C375.397 70.3716 376.185 71.0239 377.055 71.5132C377.979 71.9481 379.284 72.5461 380.969 73.3071C381.839 73.6877 382.654 74.041 383.415 74.3672C384.176 74.639 384.883 74.9108 385.535 75.1826C389.775 76.9766 393.119 78.4443 395.565 79.5859C398.011 80.7275 400.376 82.0866 402.659 83.6631C406.845 86.5443 410.134 89.8332 412.526 93.5298C414.918 97.2264 416.114 101.276 416.114 105.68C416.114 111.768 414.374 117.041 410.895 121.499C407.47 125.902 403.067 129.11 397.685 131.121C394.858 132.154 391.76 132.888 388.389 133.323C385.073 133.812 381.186 134.057 376.729 134.057C371.455 134.057 366.019 133.051 360.42 131.04C354.875 128.974 350.635 125.549 347.699 120.765C347.754 117.449 348.188 114.568 349.004 112.122C349.874 109.621 351.559 106.767 354.06 103.56Z" fill="black"/>
</g>
<defs>
<clipPath id="clip0_2549_211">
<rect width="416" height="134" fill="white"/>
</clipPath>
</defs>
</svg>
